# xmcd
#
# Track frame offsets:
#	150
#	33677
#	56632
#	77532
#	87955
#	105615
#	121235
#	170575
#
# Disc length: 2583 seconds
#
# Revision: 1
# Processed by: cddbd v1.5.2PL0 Copyright (c) Steve Scherf et al.
# Submitted via: EasyCDDAExtractor 2010.4.0.0
#
DISCID=600a1508
DTITLE=Bo Diddley - Hey
DYEAR=2006
DGENRE=Blues
TTITLE0=Intro - Bo Diddley Vamp
TTITLE1=Doctor Jeckyll
TTITLE2=Everleen
TTITLE3=I Don't Where I've Been
TTITLE4=You Can't Judge A Book By It's Cover
TTITLE5=Roadrunner
TTITLE6=I'm A Man
TTITLE7=Mona
EXTD=YEAR: 2006
EXTT0=
EXTT1=
EXTT2=
EXTT3=
EXTT4=
EXTT5=
EXTT6=
EXTT7=
PLAYORDER=
